<?xml version="1.0" standalone="no"?>
<!DOCTYPE svg PUBLIC "-//W3C//DTD SVG 20010904//EN"
 "http://www.w3.org/TR/2001/REC-SVG-20010904/DTD/svg10.dtd">
<svg version="1.0" xmlns="http://www.w3.org/2000/svg"
 width="300.000000pt" height="301.000000pt" viewBox="0 0 300.000000 301.000000"
 preserveAspectRatio="xMidYMid meet">
<metadata>
Created by potrace 1.10, written by Peter Selinger 2001-2011
</metadata>
<g transform="translate(0.000000,301.000000) scale(0.100000,-0.100000)"
fill="#000000" stroke="none">
<path d="M1320 2979 c-426 -53 -820 -294 -1060 -649 -147 -218 -250 -518 -250
-728 0 -81 5 -78 14 8 10 112 37 240 75 357 28 87 145 319 188 373 197 250
349 378 573 483 229 108 383 141 650 140 189 0 294 -16 454 -68 153 -50 360
-163 471 -256 76 -65 104 -93 98 -103 -3 -6 -3 -8 2 -4 4 4 32 -18 63 -50 102
-108 196 -256 267 -424 60 -142 85 -243 110 -453 9 -72 15 -68 15 9 0 78 -30
238 -66 346 -38 117 -147 326 -218 420 -145 193 -322 341 -531 445 -221 110
-396 154 -635 160 -80 2 -179 0 -220 -6z"/>
<path d="M437 2201 c-16 -27 -17 -79 -17 -613 0 -320 3 -593 6 -606 4 -12 18
-28 33 -35 36 -18 114 -14 145 7 25 16 26 20 26 121 l0 105 270 0 c268 0 269
0 281 -22 28 -52 61 -64 193 -66 54 -1 102 -5 106 -7 5 -3 11 -1 15 5 4 6 11
8 16 4 9 -5 177 -6 429 -2 41 1 137 0 213 0 75 -1 140 -1 145 -1 4 1 26 1 50
0 l42 -1 0 -54 c0 -47 4 -57 29 -78 24 -21 38 -24 86 -22 76 3 95 22 102 100
5 52 9 61 37 79 57 37 61 58 60 290 0 233 -5 253 -62 291 l-33 23 -677 -3
c-617 -2 -680 -4 -709 -19 -18 -10 -33 -22 -33 -27 0 -6 -24 -10 -54 -10 l-54
0 6 46 c3 27 0 55 -8 69 -24 44 -53 50 -258 50 l-192 0 0 138 c0 159 -13 198
-77 242 -52 35 -94 33 -116 -4z m129 -36 l44 -42 0 -241 0 -242 289 0 289 0
30 30 30 30 684 0 c616 0 686 -2 707 -16 44 -32 51 -68 51 -286 0 -187 -2
-206 -21 -237 -11 -18 -33 -38 -49 -44 -28 -11 -30 -14 -30 -69 0 -76 -20 -98
-90 -98 -71 0 -90 21 -90 100 l0 60 -581 0 -581 0 -29 29 c-16 16 -29 37 -29
45 0 14 -33 16 -290 16 l-290 0 0 -115 c0 -131 -3 -135 -86 -135 -91 0 -84
-49 -84 636 0 598 0 603 21 617 28 20 55 11 105 -38z m488 -381 c31 -32 34
-72 7 -105 -19 -24 -21 -24 -229 -24 l-210 -1 -1 69 c-1 37 1 73 4 78 4 5 92
9 204 9 l198 0 27 -26z"/>
<path d="M1186 1614 c-11 -27 -7 -404 4 -404 6 0 10 77 10 210 0 116 -2 210
-4 210 -2 0 -7 -7 -10 -16z"/>
<path d="M2438 1118 c-13 -3 15 -6 61 -7 46 -1 82 1 79 4 -8 8 -114 11 -140 3z"/>
<path d="M15 1340 c9 -233 121 -530 282 -744 170 -227 417 -413 679 -512 88
-33 260 -74 304 -73 l35 1 -35 9 c-19 5 -44 11 -55 13 -90 17 -211 53 -270 80
-172 80 -269 133 -305 166 -24 22 -48 40 -55 40 -16 0 -225 200 -225 215 0 8
-3 15 -7 17 -34 15 -168 221 -157 240 4 7 3 10 -1 5 -12 -10 -66 100 -103 209
-33 98 -70 260 -83 369 -7 63 -8 59 -4 -35z"/>
<path d="M2977 1365 c-14 -132 -71 -377 -96 -410 -4 -5 -18 -37 -31 -70 -40
-101 -97 -195 -200 -329 -29 -37 -195 -202 -224 -221 -16 -11 -36 -27 -45 -35
-36 -34 -218 -141 -249 -146 -7 -1 -24 -10 -38 -19 -14 -9 -32 -14 -40 -11 -8
3 -13 2 -10 -3 9 -14 -125 -56 -339 -104 -13 -3 -8 -5 12 -6 90 -3 306 64 464
145 410 210 697 589 789 1043 13 64 20 130 18 175 l-3 71 -8 -80z"/>
</g>
</svg>
