<?xml version="1.0" standalone="no"?>
<!DOCTYPE svg PUBLIC "-//W3C//DTD SVG 20010904//EN"
 "http://www.w3.org/TR/2001/REC-SVG-20010904/DTD/svg10.dtd">
<svg version="1.0" xmlns="http://www.w3.org/2000/svg"
 width="300.000000pt" height="299.000000pt" viewBox="0 0 300.000000 299.000000"
 preserveAspectRatio="xMidYMid meet">
<metadata>
Created by potrace 1.10, written by Peter Selinger 2001-2011
</metadata>
<g transform="translate(0.000000,299.000000) scale(0.100000,-0.100000)"
fill="#5b92e5" stroke="none">
<path d="M1240 2965 c-608 -115 -1070 -561 -1205 -1165 -26 -116 -32 -422 -10
-553 89 -537 469 -985 988 -1166 114 -40 269 -71 344 -70 l58 1 -55 9 c-30 5
-66 10 -80 13 -74 11 -186 38 -197 48 -7 6 -13 8 -13 4 0 -3 -15 0 -34 8 -19
8 -37 12 -40 8 -3 -3 -6 0 -6 6 0 7 -8 12 -18 12 -10 0 -22 3 -25 7 -4 3 -28
14 -54 23 -67 24 -204 105 -195 115 4 5 1 5 -5 1 -7 -4 -13 -2 -13 3 0 6 -6
11 -13 11 -32 0 -221 174 -323 296 -93 112 -200 311 -249 460 -53 162 -70 277
-69 464 1 150 5 191 27 290 60 266 170 487 332 670 73 83 92 100 98 94 3 -3 8
3 11 13 3 10 19 27 36 38 16 11 30 23 30 28 0 4 7 7 15 7 8 0 15 4 15 10 0 16
145 108 258 164 99 49 207 90 307 115 162 41 423 50 579 20 28 -5 65 -12 81
-15 204 -34 492 -179 648 -326 22 -21 43 -38 46 -38 7 0 102 -103 153 -165
107 -131 212 -341 262 -525 81 -303 66 -621 -45 -915 -47 -124 -160 -321 -229
-400 -94 -107 -290 -285 -314 -285 -4 0 -16 -8 -26 -18 -19 -18 -56 -39 -161
-93 -63 -32 -234 -96 -279 -104 -17 -3 -58 -12 -92 -20 -35 -8 -90 -17 -122
-19 -32 -3 -61 -8 -64 -11 -13 -13 119 -3 208 15 509 104 937 475 1108 960 67
191 77 254 77 495 0 175 -4 237 -18 305 -123 575 -544 1010 -1120 1156 -91 24
-125 27 -317 30 -156 2 -236 -1 -290 -11z"/>
<path d="M1501 2522 c-7 -2 -21 -12 -31 -21 -40 -38 -69 -59 -74 -54 -3 4 -6
-1 -6 -10 0 -9 -4 -17 -8 -17 -5 0 -35 -25 -68 -56 -32 -31 -79 -72 -104 -92
-24 -20 -71 -62 -103 -92 -33 -30 -71 -64 -85 -75 -15 -11 -60 -51 -102 -90
-42 -38 -96 -87 -120 -109 -25 -21 -63 -55 -86 -75 -22 -20 -73 -65 -112 -100
-48 -42 -72 -70 -72 -85 1 -25 89 -126 111 -126 8 0 28 13 44 30 16 16 30 28
32 26 2 -1 25 18 51 43 43 41 121 110 236 211 23 19 46 40 52 45 6 6 41 37 79
70 37 33 73 65 80 72 7 7 15 10 19 8 3 -3 4 -2 2 1 -6 8 165 160 176 157 4 -2
8 2 8 8 0 5 5 7 12 3 6 -4 8 -3 5 3 -4 6 12 27 34 48 l41 37 31 -29 c17 -15
45 -41 62 -58 18 -16 43 -39 57 -50 33 -27 163 -141 213 -186 22 -20 83 -74
135 -120 52 -46 97 -86 100 -89 21 -23 262 -230 269 -230 5 0 25 14 46 30 21
17 34 30 30 30 -4 0 5 14 19 31 14 17 26 34 26 38 0 10 -59 66 -180 172 -58
50 -110 97 -115 103 -6 6 -44 40 -85 76 -115 100 -142 123 -171 150 -15 14
-53 48 -85 75 -31 28 -72 64 -90 81 -18 17 -56 51 -85 75 -29 24 -73 63 -98
87 -54 51 -71 61 -90 54z m498 -442 c265 -234 481 -427 481 -430 0 -3 -22 -30
-48 -61 l-48 -56 -433 383 c-239 211 -436 384 -440 384 -3 0 -199 -171 -435
-380 -236 -209 -432 -380 -436 -380 -4 0 -29 25 -55 56 l-48 55 34 29 c19 15
237 208 484 428 248 220 453 400 457 399 4 -1 223 -193 487 -427z"/>
<path d="M817 2394 c-4 -4 -7 -92 -7 -196 0 -164 2 -188 16 -188 25 0 45 14
106 74 31 31 59 56 62 56 2 0 25 21 51 46 l46 46 -3 82 -3 81 -131 3 c-71 1
-133 -1 -137 -4z m253 -18 c0 -3 0 -36 0 -73 l0 -68 -120 -107 c-65 -60 -120
-108 -122 -108 -2 0 -2 82 0 182 l3 183 119 -2 c66 -1 120 -4 120 -7z"/>
<path d="M1464 2162 c-16 -15 -67 -61 -114 -102 -46 -41 -91 -82 -100 -90 -9
-8 -41 -36 -71 -62 -30 -26 -78 -69 -108 -97 -30 -27 -58 -48 -63 -45 -5 3 -7
1 -6 -4 2 -5 -24 -33 -57 -61 -33 -29 -77 -68 -97 -89 l-38 -36 0 -448 0 -448
26 -17 c24 -15 53 -17 241 -16 140 2 219 6 228 13 11 9 13 48 11 178 -2 92 -1
179 2 195 l5 27 191 -2 191 -3 3 -195 c2 -107 7 -199 12 -204 4 -4 108 -8 231
-8 212 1 223 2 243 22 21 20 21 27 21 453 0 247 -3 441 -9 452 -5 11 -30 39
-55 61 -52 47 -209 185 -260 230 -19 16 -47 40 -62 54 -15 14 -62 57 -105 95
-43 39 -90 81 -105 95 -99 92 -110 96 -155 52z m736 -1027 c0 -329 -3 -435
-12 -448 -11 -14 -42 -17 -236 -19 l-222 -3 0 197 c0 194 0 198 -22 212 -18
11 -62 14 -198 14 -96 0 -183 -4 -192 -9 -16 -9 -18 -30 -18 -212 l0 -202
-222 3 c-123 1 -229 4 -235 7 -10 3 -13 103 -13 452 l0 448 341 301 342 301
343 -305 344 -305 0 -432z"/>
</g>
</svg>
