<?xml version="1.0" standalone="no"?>
<!DOCTYPE svg PUBLIC "-//W3C//DTD SVG 20010904//EN"
 "http://www.w3.org/TR/2001/REC-SVG-20010904/DTD/svg10.dtd">
<svg version="1.0" xmlns="http://www.w3.org/2000/svg"
 width="300.000000pt" height="303.000000pt" viewBox="0 0 300.000000 303.000000"
 preserveAspectRatio="xMidYMid meet">
<metadata>
Created by potrace 1.10, written by Peter Selinger 2001-2011
</metadata>
<g transform="translate(0.000000,303.000000) scale(0.100000,-0.100000)"
fill="#5b92e5" stroke="none">
<path d="M1225 3000 c-537 -107 -972 -491 -1145 -1009 -41 -123 -70 -275 -69
-359 l2 -67 9 65 c33 237 74 382 156 547 58 115 118 213 133 213 6 0 7 5 4 10
-3 6 -2 10 2 10 5 0 17 14 27 31 25 42 230 246 255 254 12 3 21 11 21 16 0 6
5 7 10 4 5 -3 10 -2 10 3 0 12 137 101 210 136 80 39 223 94 252 97 4 0 22 5
40 10 46 14 113 26 183 34 33 4 80 11 105 15 39 7 35 8 -35 8 -44 0 -121 -8
-170 -18z"/>
<path d="M1572 3015 c2 -3 38 -8 79 -11 64 -5 121 -15 239 -40 67 -14 216 -72
314 -121 110 -57 273 -171 336 -237 19 -20 50 -51 69 -69 35 -33 161 -191 161
-200 0 -4 11 -22 24 -42 45 -65 118 -227 153 -340 20 -60 39 -114 43 -118 16
-18 -13 102 -47 193 -185 500 -609 864 -1130 969 -90 19 -255 29 -241 16z"/>
<path d="M1375 2714 c-276 -128 -203 -111 -562 -128 l-318 -15 -22 -26 c-31
-35 -29 -60 12 -154 l35 -79 -32 -53 c-29 -46 -33 -60 -33 -124 0 -62 4 -78
30 -121 38 -60 107 -105 173 -112 46 -4 47 -5 71 -61 67 -153 82 -179 113
-190 17 -6 38 -11 47 -11 8 0 121 105 251 234 224 222 239 235 318 271 49 23
86 35 91 29 4 -5 69 -103 143 -219 74 -115 160 -249 190 -296 52 -79 55 -87
42 -110 -27 -48 -14 -132 28 -176 l20 -21 -87 -329 c-47 -180 -91 -343 -96
-360 l-11 -33 -302 0 -303 0 -21 -23 c-20 -22 -34 -57 -62 -164 l-11 -43 -58
0 c-47 0 -61 -4 -79 -23 -29 -31 -29 -77 1 -105 l23 -22 676 0 c645 0 677 1
699 19 17 13 23 29 23 56 0 48 -31 75 -84 75 -33 0 -39 4 -44 28 -22 90 -50
166 -67 183 -17 17 -34 19 -140 19 -110 0 -120 2 -115 18 3 9 44 163 91 341
47 179 88 328 91 333 3 4 14 8 25 8 30 0 97 73 105 114 18 101 -54 196 -149
196 -34 0 -36 3 -212 278 -98 152 -184 287 -192 298 -13 21 -11 23 24 40 70
35 68 47 -36 276 -51 112 -98 208 -104 215 -29 29 -62 23 -182 -33z m162 4 c6
-7 50 -100 98 -206 87 -189 88 -193 69 -211 -10 -10 -95 -53 -189 -95 l-170
-77 -233 -232 c-232 -232 -232 -232 -258 -217 -21 12 -61 95 -200 408 -96 216
-174 399 -174 406 0 7 8 20 18 29 15 14 69 19 328 31 l310 15 175 80 c176 81
209 91 226 69z m-922 -620 c39 -90 68 -164 64 -166 -4 -2 -27 2 -51 8 -78 21
-148 114 -148 196 0 41 45 142 58 130 2 -3 37 -79 77 -168z m1207 -171 l186
-292 -21 -17 c-12 -10 -24 -17 -27 -17 -3 0 -91 134 -196 299 -181 282 -190
299 -170 308 11 6 26 11 31 11 6 0 94 -131 197 -292z m307 -335 c38 -20 71
-73 71 -112 0 -56 -74 -130 -128 -130 -34 0 -84 27 -106 56 -44 61 -22 153 44
186 45 23 77 23 119 0z m-74 -290 c-3 -8 -44 -162 -92 -343 l-86 -329 -32 0
-32 0 93 348 c52 191 94 350 94 354 0 3 14 1 30 -5 19 -7 28 -17 25 -25z m99
-724 c8 -13 21 -50 31 -83 9 -33 18 -68 21 -77 5 -17 -26 -18 -546 -18 l-551
0 6 21 c4 12 16 51 26 88 10 36 27 72 36 79 13 9 127 12 490 12 l473 0 14 -22z
m170 -230 c13 -19 14 -25 2 -43 -13 -20 -21 -20 -681 -23 -485 -1 -672 1 -681
9 -17 14 -18 51 -2 67 9 9 174 12 679 12 l668 0 15 -22z"/>
<path d="M16 1355 c8 -219 105 -487 256 -707 210 -307 553 -536 927 -619 76
-16 181 -26 170 -15 -2 2 -20 7 -39 10 -371 61 -643 197 -887 447 -177 181
-313 423 -378 674 -13 49 -41 206 -49 275 -3 19 -3 -10 0 -65z"/>
<path d="M2982 1178 c-7 -7 -12 -20 -12 -29 0 -58 -111 -320 -188 -444 -65
-105 -231 -288 -322 -355 -18 -14 -55 -43 -81 -65 -128 -107 -471 -241 -662
-259 -62 -5 -73 -16 -18 -16 105 0 333 66 483 140 360 177 639 489 764 852 23
67 55 188 50 188 -1 0 -7 -5 -14 -12z"/>
</g>
</svg>
