<?xml version="1.0" standalone="no"?>
<!DOCTYPE svg PUBLIC "-//W3C//DTD SVG 20010904//EN"
 "http://www.w3.org/TR/2001/REC-SVG-20010904/DTD/svg10.dtd">
<svg version="1.0" xmlns="http://www.w3.org/2000/svg"
 width="300.000000pt" height="297.000000pt" viewBox="0 0 300.000000 297.000000"
 preserveAspectRatio="xMidYMid meet">
<metadata>
Created by potrace 1.10, written by Peter Selinger 2001-2011
</metadata>
<g transform="translate(0.000000,297.000000) scale(0.100000,-0.100000)"
fill="#5b92e5" stroke="none">
<path d="M1235 2943 c-105 -18 -292 -81 -392 -131 -211 -107 -436 -303 -561
-491 -304 -455 -341 -1014 -99 -1496 205 -411 575 -693 1037 -792 121 -26 449
-26 570 0 206 44 419 137 582 254 104 74 257 227 331 331 125 175 226 415 261
624 22 126 22 362 1 483 -108 621 -570 1096 -1183 1215 -126 25 -420 26 -547
3z m480 -8 c160 -28 289 -68 420 -130 80 -39 242 -136 255 -154 3 -4 15 -14
26 -22 25 -16 165 -146 147 -136 -6 4 12 -18 42 -48 96 -101 191 -254 253
-411 80 -200 105 -336 103 -569 -1 -290 -81 -546 -249 -800 -56 -84 -74 -105
-177 -210 -87 -89 -165 -155 -184 -155 -6 0 -11 -4 -11 -10 0 -5 -4 -10 -10
-10 -5 0 -31 -15 -57 -34 -27 -19 -84 -51 -128 -71 -107 -50 -113 -52 -165
-67 -25 -6 -47 -15 -50 -19 -8 -10 -187 -48 -280 -58 -298 -34 -659 51 -920
217 -30 19 -56 39 -58 43 -2 5 -9 9 -15 9 -24 0 -166 128 -251 226 -108 126
-128 155 -207 309 -140 273 -184 573 -133 899 16 101 63 264 94 326 9 19 27
58 39 85 43 95 171 278 230 328 17 14 31 30 31 36 0 6 6 11 14 11 8 0 17 8 21
18 15 43 311 252 357 252 6 0 19 6 27 14 49 42 306 118 460 136 74 8 315 5
376 -5z"/>
<path d="M1280 2465 c-182 -29 -433 -117 -485 -171 -5 -5 -35 -29 -65 -51
-136 -102 -213 -237 -223 -388 -7 -94 30 -164 97 -184 17 -5 119 -8 226 -7
107 1 213 -1 235 -5 35 -5 36 -6 10 -8 -16 -1 -50 -13 -75 -26 -151 -80 -183
-83 -274 -22 -56 37 -109 53 -161 49 -112 -9 -195 -93 -134 -136 20 -14 26
-13 68 10 57 30 118 32 154 4 14 -11 53 -33 86 -49 42 -19 55 -30 44 -33 -10
-3 -87 -5 -171 -6 -169 -1 -186 -6 -222 -65 -22 -36 -27 -115 -9 -150 37 -71
56 -76 292 -81 86 -2 160 -6 163 -9 3 -3 13 -3 22 0 10 4 14 3 10 -2 -4 -4
-61 -7 -127 -6 -95 2 -127 -2 -153 -15 -67 -35 -88 -77 -82 -166 6 -85 23
-126 76 -180 47 -48 75 -64 129 -72 67 -11 1565 -8 1606 3 68 19 132 76 165
148 21 47 26 151 9 195 -18 48 -81 85 -148 87 -13 1 -23 5 -23 9 0 5 48 10
108 11 158 4 203 33 207 136 3 64 -14 106 -56 136 -28 19 -46 24 -101 24 -38
0 -68 3 -68 8 0 4 15 7 33 7 36 0 125 39 145 63 18 22 12 57 -14 73 -18 12
-26 11 -70 -11 -71 -36 -114 -33 -195 15 -60 36 -140 64 -154 54 -3 -2 -2 -1
1 3 3 4 60 9 127 10 143 4 147 4 147 14 0 4 8 10 19 14 21 6 47 63 55 117 7
55 -19 164 -58 240 -49 93 -155 197 -271 265 -85 49 -264 116 -344 129 -23 4
-39 9 -37 13 5 7 -6 7 -254 15 -123 3 -200 1 -260 -9z m450 -20 c262 -39 496
-152 630 -302 86 -97 144 -273 120 -363 -6 -22 -24 -50 -41 -64 l-31 -26 -903
0 -904 0 -35 31 c-44 38 -53 79 -38 172 41 266 339 488 742 552 115 18 344 18
460 0z m-126 -786 c3 -3 -17 -11 -44 -18 -27 -7 -54 -19 -61 -27 -6 -8 -18
-14 -25 -14 -8 0 -14 -4 -14 -9 0 -13 -57 -31 -96 -31 -35 0 -120 41 -141 68
-7 9 -13 13 -13 9 0 -3 -15 -1 -32 6 l-33 12 40 5 c54 7 412 6 419 -1z m512
-2 c3 -3 -12 -10 -34 -16 -22 -6 -50 -19 -63 -30 -75 -58 -152 -67 -213 -26
-51 35 -112 65 -133 66 -10 1 -4 4 12 8 37 8 423 6 431 -2z m-1488 -27 c23 -6
67 -26 97 -46 89 -60 157 -57 250 7 54 38 124 53 178 38 23 -6 70 -28 106 -50
47 -28 76 -39 106 -39 39 0 57 7 167 69 62 35 139 34 204 -4 142 -82 168 -84
266 -25 120 72 193 73 296 2 71 -48 137 -54 204 -18 27 14 54 23 62 20 25 -9
26 -33 4 -54 -37 -35 -101 -53 -170 -48 -52 3 -75 11 -136 47 -65 39 -77 43
-121 39 -31 -3 -63 -15 -92 -35 -100 -68 -197 -71 -300 -8 -45 27 -79 39 -114
42 -44 4 -56 0 -104 -31 -73 -48 -111 -59 -184 -54 -51 3 -74 11 -131 46 -84
51 -130 55 -191 17 -92 -57 -124 -67 -194 -63 -58 3 -77 9 -137 46 -84 50
-128 54 -197 17 -42 -22 -48 -23 -62 -9 -8 9 -15 19 -15 23 0 17 42 45 92 62
62 21 61 21 116 9z m547 -101 c144 -93 229 -91 395 6 41 24 81 17 173 -30 48
-25 98 -45 110 -46 19 -1 18 -2 -6 -9 -31 -9 -972 -8 -982 1 -3 4 8 9 25 12
36 8 104 38 145 67 38 25 100 25 140 -1z m1040 4 c100 -54 142 -73 164 -74 18
-1 14 -4 -14 -9 -47 -8 -442 -6 -450 2 -3 3 9 8 27 12 18 3 65 24 103 46 77
43 122 50 170 23z m356 -126 c37 -25 52 -67 47 -129 -4 -42 -11 -57 -37 -80
l-31 -28 -1046 0 -1046 0 -34 34 c-30 30 -34 40 -34 88 0 67 26 113 72 127 20
6 429 9 1058 8 969 -2 1026 -3 1051 -20z m-1651 -267 c12 -8 9 -10 -13 -10
-16 0 -26 4 -22 10 8 12 16 12 35 0z m150 0 c12 -8 11 -10 -7 -10 -13 0 -23 5
-23 10 0 13 11 13 30 0z m180 0 c0 -6 -29 -10 -65 -10 -84 0 -84 14 0 17 38 2
65 -1 65 -7z m460 0 c0 -6 -31 -8 -265 -10 -194 -1 -187 -2 -180 10 7 11 445
11 445 0z m475 0 c-6 -10 -435 -12 -435 -1 0 5 99 9 220 9 121 0 218 -4 215
-8z m125 0 c0 -4 -25 -8 -55 -9 -30 -1 -55 2 -55 7 0 5 25 9 55 9 30 -1 55 -4
55 -7z m-1283 -6 c-3 -3 -12 -4 -19 -1 -8 3 -5 6 6 6 11 1 17 -2 13 -5z m1388
-40 c51 -24 70 -59 69 -129 0 -104 -35 -169 -118 -223 l-41 -27 -800 -3 c-565
-2 -811 0 -838 8 -48 14 -112 71 -139 124 -29 57 -34 151 -11 196 38 74 -15
70 966 70 782 0 883 -2 912 -16z"/>
<path d="M1322 2388 c-252 -31 -484 -136 -615 -277 -76 -83 -109 -153 -115
-247 -8 -127 -112 -114 913 -114 1023 0 921 -12 913 110 -25 343 -550 597
-1096 528z m353 -18 c119 -13 137 -18 129 -33 -5 -9 -4 -9 5 -1 13 12 61 7 61
-7 0 -5 8 -9 18 -9 49 0 244 -86 288 -127 13 -12 24 -19 24 -15 0 15 141 -141
158 -176 36 -71 51 -186 29 -219 -6 -10 -199 -13 -880 -13 -492 0 -878 4 -886
9 -25 16 -8 147 28 217 66 129 238 260 406 310 72 21 66 19 85 26 32 12 108
28 166 33 l61 7 1 -33 c1 -35 15 -49 48 -49 31 0 48 25 40 60 l-5 30 67 0 c37
0 108 -5 157 -10z m-236 -19 c13 -24 -9 -57 -33 -48 -23 9 -31 34 -16 52 17
20 37 19 49 -4z"/>
<path d="M1733 2308 c-40 -19 -36 -74 5 -85 14 -3 32 -1 41 4 22 14 25 57 6
77 -19 18 -22 19 -52 4z m45 -20 c16 -16 15 -23 -4 -42 -12 -12 -20 -13 -35
-6 -10 6 -19 16 -19 23 0 16 20 37 35 37 6 0 16 -5 23 -12z"/>
<path d="M977 2225 c-17 -12 -22 -41 -11 -69 7 -19 55 -21 72 -4 38 38 -18
105 -61 73z m57 -28 c9 -14 7 -21 -7 -32 -33 -24 -71 11 -46 42 15 18 39 13
53 -10z"/>
<path d="M1990 2204 c-20 -23 -1 -68 30 -72 14 -1 31 2 38 6 17 12 24 53 11
69 -16 18 -64 16 -79 -3z m64 -16 c14 -22 -12 -52 -37 -42 -17 6 -23 44 -10
58 11 11 35 3 47 -16z"/>
<path d="M1271 2106 c-17 -21 -10 -56 15 -73 18 -12 24 -11 47 7 21 16 24 25
18 48 -6 21 -14 28 -38 30 -17 2 -35 -3 -42 -12z m59 -11 c15 -18 7 -43 -16
-52 -24 -9 -46 24 -33 48 12 23 32 24 49 4z"/>
<path d="M814 1977 c-28 -24 -28 -25 -10 -51 34 -52 101 -18 80 41 -12 36 -35
40 -70 10z m54 -9 c18 -18 15 -36 -7 -48 -28 -14 -55 13 -41 41 12 22 30 25
48 7z"/>
<path d="M1922 1968 c-33 -33 8 -95 52 -79 24 9 31 31 22 67 -5 18 -13 24 -34
24 -15 0 -33 -5 -40 -12z m62 -21 c8 -12 7 -21 -6 -33 -22 -22 -48 -11 -48 20
0 37 34 45 54 13z"/>
<path d="M460 1341 c-16 -30 -12 -76 8 -94 17 -16 104 -17 1039 -17 825 0
1023 2 1031 13 16 19 18 83 3 101 -12 14 -114 16 -1042 16 -1006 0 -1029 0
-1039 -19z m2071 -23 c2 -36 -2 -52 -14 -60 -14 -9 -2008 -11 -2031 -2 -19 7
-22 70 -3 77 6 3 470 6 1030 6 l1017 1 1 -22z"/>
<path d="M602 1028 c-17 -17 -15 -123 2 -156 19 -37 55 -68 98 -87 33 -13 134
-15 805 -15 728 0 770 1 809 19 64 29 97 80 102 155 7 106 101 96 -917 96
-676 0 -890 -3 -899 -12z m1545 -8 l242 0 10 -36 c15 -53 -17 -131 -66 -164
l-37 -25 -775 -2 c-540 -2 -786 1 -810 9 -71 22 -106 84 -99 173 l3 40 225 5
c124 3 414 4 645 3 231 -1 529 -3 662 -3z"/>
</g>
</svg>
