<?xml version="1.0" standalone="no"?>
<!DOCTYPE svg PUBLIC "-//W3C//DTD SVG 20010904//EN"
 "http://www.w3.org/TR/2001/REC-SVG-20010904/DTD/svg10.dtd">
<svg version="1.0" xmlns="http://www.w3.org/2000/svg"
 width="300.000000pt" height="299.000000pt" viewBox="0 0 300.000000 299.000000"
 preserveAspectRatio="xMidYMid meet">
<metadata>
Created by potrace 1.10, written by Peter Selinger 2001-2011
</metadata>
<g transform="translate(0.000000,299.000000) scale(0.100000,-0.100000)"
fill="#000000" stroke="none">
<path d="M1190 2979 c-80 -11 -240 -64 -349 -115 -156 -73 -282 -163 -422
-303 -137 -138 -221 -253 -294 -406 -73 -152 -145 -394 -108 -364 7 7 12 14 9
16 -2 3 0 19 5 36 6 18 12 43 15 57 11 60 99 261 160 366 94 164 267 347 440
467 134 92 382 198 534 227 30 6 59 15 64 20 6 6 8 9 6 9 -3 -1 -30 -5 -60
-10z"/>
<path d="M1750 2977 c3 -2 57 -19 121 -36 216 -57 397 -152 592 -309 66 -53
192 -188 224 -240 9 -15 24 -36 34 -47 45 -53 153 -269 192 -386 14 -41 33
-118 42 -170 9 -52 20 -105 23 -119 6 -24 6 -24 10 5 11 80 -63 337 -143 496
-74 148 -159 263 -290 395 -178 179 -360 291 -597 368 -95 31 -221 58 -208 43z"/>
<path d="M1135 2647 c-44 -17 -59 -29 -83 -62 -22 -30 -22 -33 -25 -577 l-3
-547 -190 -190 c-221 -222 -245 -258 -247 -374 -2 -120 57 -220 161 -272 106
-53 223 -43 319 29 81 61 460 444 505 512 21 30 43 74 49 97 9 29 12 192 13
542 1 647 -3 752 -29 786 -42 56 -65 62 -260 65 -120 2 -190 -1 -210 -9z m422
-33 c15 -11 36 -36 46 -55 16 -32 17 -77 15 -659 l-3 -625 -23 -50 c-18 -38
-84 -111 -280 -309 -291 -293 -310 -306 -427 -306 -202 0 -336 194 -265 384
18 47 46 80 220 252 l200 199 3 552 c2 540 2 552 23 580 42 58 70 64 276 61
170 -3 189 -5 215 -24z"/>
<path d="M1065 2391 c-4 -8 77 -11 267 -11 153 0 267 4 260 9 -21 13 -519 14
-527 2z"/>
<path d="M1063 2243 c8 -7 527 -6 535 2 3 3 -118 5 -268 5 -150 0 -270 -3
-267 -7z"/>
<path d="M1065 2130 c4 -6 103 -10 265 -10 162 0 261 4 265 10 4 7 -87 10
-265 10 -178 0 -269 -3 -265 -10z"/>
<path d="M1065 1990 c4 -6 105 -10 271 -10 174 0 263 3 259 10 -4 6 -105 10
-271 10 -174 0 -263 -3 -259 -10z"/>
<path d="M1067 1878 c-6 -4 114 -8 267 -8 154 0 276 3 272 8 -10 10 -523 10
-539 0z"/>
<path d="M1369 1286 c80 -80 147 -143 150 -141 2 3 -56 64 -129 137 l-134 133
175 5 174 6 -191 2 -190 2 145 -144z"/>
<path d="M764 1106 c12 -14 31 -42 42 -62 10 -21 26 -45 34 -54 31 -35 142
-159 161 -181 12 -13 32 -43 46 -67 14 -24 28 -41 30 -38 11 10 -47 94 -124
180 -82 92 -124 147 -160 209 -12 20 -29 37 -37 37 -11 0 -9 -6 8 -24z"/>
<path d="M1873 2384 c-17 -9 -43 -33 -58 -54 l-27 -38 0 -541 c-1 -351 -5
-538 -11 -534 -6 3 -7 1 -3 -5 4 -6 -74 -92 -184 -203 -229 -229 -244 -253
-238 -373 4 -108 39 -181 111 -235 132 -99 287 -82 425 47 18 17 32 28 32 26
0 -2 15 13 34 33 19 21 111 115 204 209 183 185 217 235 231 336 3 29 6 322 6
651 -2 582 -2 598 -22 625 -11 15 -34 37 -52 49 -30 20 -44 21 -224 22 -156 1
-198 -2 -224 -15z m445 -24 c64 -39 63 -25 60 -713 l-3 -622 -28 -60 c-24 -50
-68 -100 -275 -308 -284 -285 -309 -302 -427 -302 -89 1 -148 28 -210 97 -78
87 -96 208 -45 309 14 27 99 121 219 242 l196 198 0 542 c0 499 1 545 18 574
31 58 51 62 267 63 178 0 198 -2 228 -20z"/>
<path d="M1910 2140 c-59 -4 10 -7 179 -8 151 -1 272 0 270 2 -7 7 -350 11
-449 6z"/>
<path d="M1825 1990 c-4 -7 87 -10 264 -10 174 0 271 4 271 10 0 6 -95 10
-264 10 -166 0 -267 -4 -271 -10z"/>
<path d="M1829 1879 c-8 -5 102 -9 260 -9 151 0 271 3 267 7 -10 10 -511 12
-527 2z"/>
<path d="M1822 1734 c7 -7 529 -7 536 1 3 3 -118 5 -268 5 -150 0 -271 -2
-268 -6z"/>
<path d="M1953 1623 c75 -2 199 -2 275 0 75 1 13 3 -138 3 -151 0 -213 -2
-137 -3z"/>
<path d="M2125 1030 c82 -82 151 -150 152 -150 17 0 -17 40 -122 144 -69 68
-125 126 -125 130 0 4 30 7 68 6 156 -3 263 0 257 9 -3 5 -90 10 -193 10
l-187 2 150 -151z"/>
<path d="M1512 867 c9 -7 32 -40 52 -73 19 -34 65 -93 101 -132 76 -81 136
-156 154 -190 7 -13 15 -21 18 -18 11 11 -48 94 -132 186 -48 52 -107 128
-132 168 -27 43 -52 72 -62 72 -15 -1 -15 -2 1 -13z"/>
<path d="M2981 1330 c-28 -175 -68 -324 -110 -415 -70 -149 -111 -227 -141
-262 -8 -10 -26 -34 -40 -53 -44 -62 -54 -73 -145 -165 -49 -50 -128 -118
-175 -151 -130 -91 -138 -95 -143 -81 -4 7 -6 6 -6 -4 -1 -10 -29 -29 -73 -49
-40 -18 -91 -40 -113 -50 -22 -10 -78 -30 -125 -43 -166 -49 -162 -47 -103
-42 78 6 251 68 383 136 402 208 694 594 784 1036 10 46 15 100 13 120 -2 21
-5 31 -6 23z"/>
<path d="M10 1170 c0 -84 122 -375 218 -520 184 -276 462 -487 783 -594 100
-34 229 -61 212 -46 -4 4 -39 15 -78 25 -92 22 -204 61 -263 91 -26 13 -51 24
-55 24 -15 0 -151 83 -227 138 -94 69 -236 209 -309 307 -93 123 -170 273
-228 444 -29 86 -53 145 -53 131z"/>
</g>
</svg>
